<svg xmlns="http://www.w3.org/2000/svg" viewBox="-0.2 -50.5 190 68" fill="none">
  <!-- "klym." in Archivo Black (OFL), converted to paths; all seven klym-theme stops as a ramp. -->
  <defs>
    <linearGradient id="klym-ramp" gradientUnits="userSpaceOnUse" x1="3.84" y1="0" x2="185.66" y2="0">
      <stop offset="0" stop-color="#eab308"/>
      <stop offset="0.167" stop-color="#f59e0b"/>
      <stop offset="0.333" stop-color="#f97316"/>
      <stop offset="0.5" stop-color="#ea580c"/>
      <stop offset="0.667" stop-color="#dc2626"/>
      <stop offset="0.833" stop-color="#b91c1c"/>
      <stop offset="1" stop-color="#7f1d1d"/>
    </linearGradient>
  </defs>
  <path fill="url(#klym-ramp)" d="M16.58-20.86L27.39-33.79L42.24-33.79L29.76-20.16L42.56 0L28.10 0L20.99-11.58L16.58-7.30L16.58 0L3.84 0L3.84-46.46L16.58-46.46L16.58-20.86ZM59.71 0L46.98 0L46.98-46.40L59.71-46.40L59.71 0ZM92.16-1.02Q89.54 6.08 85.73 9.76Q81.92 13.44 75.07 13.44L75.07 13.44Q70.91 13.44 67.71 12.29L67.71 12.29L67.71 4.67L72.83 4.67Q77.63 4.67 78.53 0L78.53 0L65.09-33.79L78.78-33.79L85.25-11.33L85.70-11.33L91.65-33.79L104.19-33.79L92.16-1.02ZM152.90-34.56Q158.66-34.56 161.54-31.26Q164.42-27.97 164.42-21.89L164.42-21.89L164.42 0L151.68 0L151.68-20.35Q151.68-22.53 150.62-23.84Q149.57-25.15 147.65-25.15L147.65-25.15Q145.41-25.15 144-23.62Q142.59-22.08 142.59-19.84L142.59-19.84L142.59 0L129.86 0L129.86-20.35Q129.86-22.53 128.80-23.84Q127.74-25.15 125.82-25.15L125.82-25.15Q123.58-25.15 122.18-23.62Q120.77-22.08 120.77-19.84L120.77-19.84L120.77 0L108.03 0L108.03-33.79L118.46-33.79L119.30-28.74Q121.22-31.42 124.38-32.99Q127.55-34.56 131.07-34.56L131.07-34.56Q138.69-34.56 141.31-28.74L141.31-28.74Q143.30-31.42 146.40-32.99Q149.50-34.56 152.90-34.56L152.90-34.56ZM185.66 0L172.10 0L172.10-12.74L185.66-12.74L185.66 0Z"/>
</svg>
